<?xml version="1.0" ?><!DOCTYPE svg  PUBLIC '-//W3C//DTD SVG 1.1//EN'  'http://www.w3.org/Graphics/SVG/1.1/DTD/svg11.dtd'><svg height="2048px" style="shape-rendering:geometricPrecision; text-rendering:geometricPrecision; image-rendering:optimizeQuality; fill-rule:evenodd; clip-rule:evenodd" viewBox="0 0 2048 2048" width="2048px" xml:space="preserve" xmlns="http://www.w3.org/2000/svg" xmlns:xlink="http://www.w3.org/1999/xlink"><defs><style type="text/css">
   <![CDATA[
    .fil1 {fill:none}
    .fil0 {fill:#424242;fill-rule:nonzero}
   ]]>
  </style></defs><g id="Layer_x0020_1"><g id="_333147096"><path class="fil0" d="M688.008 1423.85c0,11.6398 -4.12323,21.5929 -11.3563,28.8567l-0.0318898 0.0307087 -0.0318898 0.0330709c-7.26851,7.23662 -17.2299,11.3563 -28.8591,11.3563l-351.453 0c-11.5677,0 -21.6,-4.14567 -28.8768,-11.4224 -7.20237,-7.20355 -11.4,-17.1532 -11.4,-28.8544l0 -67.0654c0,-55.728 24.0272,-114.382 65.7414,-157.244 37.4587,-38.4898 89.1036,-64.4067 150.414,-64.4067 59.3304,0 113.434,24.9744 152.648,65.3268 38.9622,40.0949 63.2056,95.3552 63.2056,156.324l0 67.0654z" id="_333147768"/><path class="fil0" d="M473.866 745.361c54.7158,0 104.31,22.1906 140.237,58.0359 35.967,35.8831 58.2272,85.402 58.2272,140.008 0,54.7158 -22.2225,104.164 -58.1363,139.971 -35.941,35.8323 -85.5721,57.952 -140.328,57.952 -54.5882,0 -104.141,-22.1362 -140.029,-57.9945 -35.8394,-35.8099 -58.0453,-85.2414 -58.0453,-139.929 0,-54.6213 22.2201,-104.119 58.0701,-139.964 35.876,-35.8701 85.4127,-58.0796 140.004,-58.0796z" id="_333146352"/><path class="fil0" d="M1214.73 1424.27c0,11.6681 -4.11969,21.4914 -11.289,28.6335 -7.22599,7.19882 -17.1414,11.2228 -28.6571,11.2228l-390.227 0c-11.5122,0 -21.4382,-4.02402 -28.6772,-11.2264 -7.17284,-7.13741 -11.2996,-16.9583 -11.2996,-28.6299l0 -74.9044c0,-67.9193 26.374,-127.015 67.6264,-169.746 43.35,-44.9008 103.12,-71.6965 166.037,-71.6965 68.2193,0 125.134,27.6071 166.115,69.43 45.1241,46.0512 70.793,109.401 70.793,172.012l-0.0649607 0.0637796 -0.420473 74.8406 0.0637796 0z" id="_333146952"/><path class="fil0" d="M978.663 670.878c60.6142,0 115.562,24.5268 155.322,64.2886 39.6709,39.6674 64.2272,94.4977 64.2272,155.258 0,60.5516 -24.613,115.442 -64.3595,155.189 -39.7465,39.7465 -94.6383,64.3595 -155.19,64.3595 -60.7619,0 -115.6,-24.5587 -155.277,-64.2296 -39.7666,-39.7618 -64.3004,-94.7068 -64.3004,-155.319 0,-121.682 97.8969,-219.547 219.578,-219.547z" id="_333146808"/><path class="fil0" d="M1792 1424.27c0,11.7402 -4.16457,21.6201 -11.511,28.8 -7.25788,7.09253 -17.2122,11.0563 -28.8874,11.0563l-439.903 0c-11.6823,0 -21.5067,-4.0937 -28.6524,-11.2028 -7.26851,-7.23071 -11.3244,-17.1532 -11.3244,-28.6536l0 -89.4107c0,-77.0398 29.8075,-140.123 74.2843,-185.497 50.4969,-51.515 120.025,-80.002 186.29,-80.002l0.0543308 0c74.6351,0 139.583,31.1646 185.884,80.0056 46.1433,48.6756 73.6879,114.971 73.702,185.439l0.0637796 0 0 0.0543308 0 89.4107z" id="_333146832"/><path class="fil0" d="M1529.86 583.87c65.9386,0 125.692,27.1122 168.98,70.8957 43.2237,43.7209 69.9697,104.069 69.9697,170.608 0,66.3284 -26.7744,126.515 -70.043,170.133 -43.2579,43.6099 -102.982,70.6182 -168.907,70.6182 -66.1229,0 -125.967,-26.9929 -169.309,-70.5804 -43.3713,-43.6158 -70.1823,-103.818 -70.1823,-170.171 0,-66.5646 26.8075,-126.952 70.1741,-170.708 43.3311,-43.7233 103.178,-70.7953 169.317,-70.7953z" id="_333146592"/></g></g><rect class="fil1" height="2048" width="2048"/></svg>